<svg xmlns="http://www.w3.org/2000/svg" xmlns:xlink="http://www.w3.org/1999/xlink" width="500" zoomAndPan="magnify" viewBox="0 0 375 374.999991" height="500" preserveAspectRatio="xMidYMid meet" version="1.0"><defs><g/><clipPath id="fed567f0b8"><path d="M 206 114.367188 L 221 114.367188 L 221 130 L 206 130 Z M 206 114.367188 " clip-rule="nonzero"/></clipPath><clipPath id="d54314876e"><path d="M 131.410156 150 L 179 150 L 179 197.617188 L 131.410156 197.617188 Z M 131.410156 150 " clip-rule="nonzero"/></clipPath><clipPath id="ff1a93610a"><path d="M 196 150 L 243.582031 150 L 243.582031 197.617188 L 196 197.617188 Z M 196 150 " clip-rule="nonzero"/></clipPath></defs><g clip-path="url(#fed567f0b8)"><path fill="#2099ea" d="M 217.121094 129.386719 C 213.742188 130.9375 209.523438 128.949219 207.710938 124.949219 C 205.894531 120.945312 207.160156 116.441406 210.539062 114.894531 C 213.921875 113.34375 218.136719 115.328125 219.953125 119.332031 C 221.769531 123.335938 220.503906 127.835938 217.121094 129.386719 Z M 217.121094 129.386719 " fill-opacity="1" fill-rule="nonzero"/></g><path fill="#f42a64" d="M 158.289062 138.433594 C 158.296875 138.546875 158.304688 138.664062 158.324219 138.777344 C 158.308594 138.664062 158.296875 138.550781 158.289062 138.433594 Z M 158.289062 138.433594 " fill-opacity="1" fill-rule="nonzero"/><path fill="#f42a64" d="M 158.304688 137.640625 C 158.296875 137.71875 158.285156 137.792969 158.28125 137.871094 C 158.285156 137.792969 158.296875 137.714844 158.304688 137.640625 Z M 158.304688 137.640625 " fill-opacity="1" fill-rule="nonzero"/><path fill="#f42a64" d="M 158.28125 138.035156 C 158.277344 138.132812 158.277344 138.230469 158.28125 138.332031 C 158.277344 138.230469 158.277344 138.132812 158.28125 138.035156 Z M 158.28125 138.035156 " fill-opacity="1" fill-rule="nonzero"/><path fill="#f42a64" d="M 158.46875 139.425781 C 158.488281 139.5 158.503906 139.566406 158.53125 139.636719 C 158.503906 139.566406 158.484375 139.5 158.46875 139.425781 Z M 158.46875 139.425781 " fill-opacity="1" fill-rule="nonzero"/><path fill="#f42a64" d="M 158.847656 140.355469 C 158.863281 140.386719 158.878906 140.421875 158.898438 140.453125 C 158.882812 140.421875 158.867188 140.386719 158.847656 140.355469 Z M 158.847656 140.355469 " fill-opacity="1" fill-rule="nonzero"/><path fill="#f42a64" d="M 158.648438 139.945312 C 158.664062 139.976562 158.679688 140.015625 158.695312 140.050781 C 158.679688 140.015625 158.664062 139.976562 158.648438 139.945312 Z M 158.648438 139.945312 " fill-opacity="1" fill-rule="nonzero"/><path fill="#f42a64" d="M 158.34375 138.890625 C 158.363281 139 158.382812 139.109375 158.40625 139.21875 C 158.378906 139.109375 158.359375 139 158.34375 138.890625 Z M 158.34375 138.890625 " fill-opacity="1" fill-rule="nonzero"/><path fill="#f42a64" d="M 159.058594 140.699219 C 159.089844 140.746094 159.113281 140.792969 159.148438 140.835938 C 159.113281 140.792969 159.085938 140.746094 159.058594 140.699219 Z M 159.058594 140.699219 " fill-opacity="1" fill-rule="nonzero"/><path fill="#f42a64" d="M 159.578125 134.875 C 159.5625 134.890625 159.546875 134.90625 159.53125 134.921875 C 159.546875 134.90625 159.5625 134.890625 159.578125 134.875 Z M 159.578125 134.875 " fill-opacity="1" fill-rule="nonzero"/><path fill="#f42a64" d="M 159.113281 135.449219 C 159.058594 135.523438 159.007812 135.601562 158.957031 135.679688 C 159.007812 135.601562 159.058594 135.527344 159.113281 135.449219 Z M 159.113281 135.449219 " fill-opacity="1" fill-rule="nonzero"/><path fill="#f42a64" d="M 159.410156 135.0625 C 159.339844 135.140625 159.273438 135.222656 159.210938 135.304688 C 159.273438 135.21875 159.34375 135.140625 159.410156 135.0625 Z M 159.410156 135.0625 " fill-opacity="1" fill-rule="nonzero"/><path fill="#f42a64" d="M 159.289062 141.019531 C 159.339844 141.082031 159.386719 141.144531 159.441406 141.207031 C 159.386719 141.144531 159.335938 141.082031 159.289062 141.019531 Z M 159.289062 141.019531 " fill-opacity="1" fill-rule="nonzero"/><path fill="#f42a64" d="M 158.363281 137.226562 C 158.351562 137.285156 158.339844 137.34375 158.328125 137.402344 C 158.339844 137.34375 158.355469 137.285156 158.363281 137.226562 Z M 158.363281 137.226562 " fill-opacity="1" fill-rule="nonzero"/><path fill="#f42a64" d="M 158.4375 136.898438 C 158.445312 136.859375 158.460938 136.820312 158.472656 136.785156 C 158.457031 136.832031 158.441406 136.886719 158.425781 136.9375 C 158.429688 136.921875 158.433594 136.910156 158.4375 136.898438 Z M 158.4375 136.898438 " fill-opacity="1" fill-rule="nonzero"/><path fill="#f42a64" d="M 158.636719 136.320312 C 158.613281 136.375 158.585938 136.4375 158.566406 136.496094 C 158.589844 136.433594 158.613281 136.375 158.636719 136.320312 Z M 158.636719 136.320312 " fill-opacity="1" fill-rule="nonzero"/><path fill="#f42a64" d="M 158.851562 135.871094 C 158.8125 135.941406 158.773438 136.007812 158.742188 136.074219 C 158.777344 136.007812 158.816406 135.9375 158.851562 135.871094 Z M 158.851562 135.871094 " fill-opacity="1" fill-rule="nonzero"/><path fill="#f42a64" d="M 160.703125 142.214844 C 160.753906 142.246094 160.800781 142.273438 160.851562 142.296875 C 160.804688 142.273438 160.753906 142.246094 160.703125 142.214844 Z M 160.703125 142.214844 " fill-opacity="1" fill-rule="nonzero"/><path fill="#f42a64" d="M 159.5625 141.335938 C 159.628906 141.410156 159.695312 141.476562 159.769531 141.546875 C 159.699219 141.476562 159.628906 141.40625 159.5625 141.335938 Z M 159.5625 141.335938 " fill-opacity="1" fill-rule="nonzero"/><path fill="#f42a64" d="M 160.277344 141.953125 C 160.34375 141.996094 160.40625 142.042969 160.476562 142.082031 C 160.40625 142.042969 160.339844 141.996094 160.277344 141.953125 Z M 160.277344 141.953125 " fill-opacity="1" fill-rule="nonzero"/><path fill="#f42a64" d="M 159.902344 141.660156 C 159.972656 141.722656 160.042969 141.777344 160.109375 141.835938 C 160.042969 141.777344 159.972656 141.722656 159.902344 141.660156 Z M 159.902344 141.660156 " fill-opacity="1" fill-rule="nonzero"/><path fill="#f42a64" d="M 161.710938 142.625 C 162.109375 142.730469 162.515625 142.789062 162.925781 142.789062 C 164.191406 142.789062 165.453125 142.269531 166.367188 141.257812 C 168.175781 139.257812 170.1875 137.53125 172.382812 136.074219 C 178.464844 138.203125 184.804688 141.410156 189.121094 147.195312 C 196.089844 156.539062 195.199219 168.507812 193.691406 179.96875 C 193.378906 182.316406 191.386719 184.027344 189.089844 184.027344 C 188.882812 184.027344 188.679688 184.015625 188.472656 183.988281 C 185.929688 183.648438 184.136719 181.300781 184.472656 178.742188 C 185.730469 169.195312 186.550781 159.332031 181.679688 152.800781 C 177.570312 147.289062 170.203125 144.929688 161.710938 142.625 Z M 161.710938 142.625 " fill-opacity="1" fill-rule="nonzero"/><path fill="#ff903e" d="M 158.425781 136.9375 C 158.402344 137.035156 158.382812 137.128906 158.363281 137.226562 C 158.382812 137.128906 158.402344 137.03125 158.425781 136.9375 Z M 158.425781 136.9375 " fill-opacity="1" fill-rule="nonzero"/><path fill="#ff903e" d="M 158.332031 137.402344 C 158.320312 137.480469 158.3125 137.558594 158.308594 137.636719 C 158.3125 137.558594 158.320312 137.480469 158.332031 137.402344 Z M 158.332031 137.402344 " fill-opacity="1" fill-rule="nonzero"/><path fill="#ff903e" d="M 160.855469 142.296875 C 161.121094 142.429688 161.40625 142.542969 161.710938 142.625 C 161.417969 142.542969 161.132812 142.4375 160.855469 142.296875 Z M 160.855469 142.296875 " fill-opacity="1" fill-rule="nonzero"/><path fill="#ff903e" d="M 159.144531 140.835938 C 159.191406 140.898438 159.242188 140.960938 159.289062 141.019531 C 159.242188 140.960938 159.191406 140.898438 159.144531 140.835938 Z M 159.144531 140.835938 " fill-opacity="1" fill-rule="nonzero"/><path fill="#ff903e" d="M 158.566406 136.492188 C 158.535156 136.585938 158.503906 136.683594 158.472656 136.78125 C 158.503906 136.683594 158.53125 136.585938 158.566406 136.492188 Z M 158.566406 136.492188 " fill-opacity="1" fill-rule="nonzero"/><path fill="#ff903e" d="M 158.28125 137.871094 C 158.277344 137.925781 158.28125 137.980469 158.277344 138.035156 C 158.28125 137.980469 158.277344 137.925781 158.28125 137.871094 Z M 158.28125 137.871094 " fill-opacity="1" fill-rule="nonzero"/><path fill="#ff903e" d="M 159.578125 134.875 C 164.613281 129.332031 170.859375 125.382812 178.148438 123.136719 C 185.128906 120.984375 192.929688 120.433594 201.335938 121.507812 C 203.269531 121.753906 204.773438 123.160156 205.242188 124.949219 C 204.828125 123.585938 203.71875 122.484375 202.238281 122.152344 C 200.046875 121.660156 197.871094 123.050781 197.382812 125.253906 L 196.234375 130.414062 C 186.914062 129.867188 178.835938 131.796875 172.378906 136.074219 C 169.492188 135.066406 166.664062 134.296875 164.136719 133.605469 C 162.445312 133.144531 160.714844 133.6875 159.578125 134.875 Z M 159.578125 134.875 " fill-opacity="1" fill-rule="nonzero"/><path fill="#ff903e" d="M 158.957031 135.679688 C 158.917969 135.746094 158.886719 135.808594 158.851562 135.871094 C 158.886719 135.808594 158.917969 135.746094 158.957031 135.679688 Z M 158.957031 135.679688 " fill-opacity="1" fill-rule="nonzero"/><path fill="#ff903e" d="M 158.742188 136.074219 C 158.707031 136.15625 158.671875 136.238281 158.636719 136.316406 C 158.671875 136.238281 158.707031 136.15625 158.742188 136.074219 Z M 158.742188 136.074219 " fill-opacity="1" fill-rule="nonzero"/><path fill="#ff903e" d="M 159.480469 134.972656 C 159.496094 134.957031 159.515625 134.941406 159.53125 134.921875 C 159.492188 134.964844 159.449219 135.015625 159.410156 135.0625 C 159.433594 135.035156 159.457031 135.003906 159.480469 134.972656 Z M 159.480469 134.972656 " fill-opacity="1" fill-rule="nonzero"/><path fill="#ff903e" d="M 158.28125 138.332031 C 158.28125 138.363281 158.289062 138.398438 158.292969 138.433594 C 158.289062 138.398438 158.28125 138.363281 158.28125 138.332031 Z M 158.28125 138.332031 " fill-opacity="1" fill-rule="nonzero"/><path fill="#ff903e" d="M 159.800781 141.574219 C 159.789062 141.566406 159.78125 141.554688 159.769531 141.546875 C 159.816406 141.589844 159.859375 141.625 159.90625 141.664062 C 159.867188 141.632812 159.835938 141.605469 159.800781 141.574219 Z M 159.800781 141.574219 " fill-opacity="1" fill-rule="nonzero"/><path fill="#ff903e" d="M 158.695312 140.050781 C 158.742188 140.15625 158.792969 140.257812 158.847656 140.355469 C 158.792969 140.257812 158.742188 140.15625 158.695312 140.050781 Z M 158.695312 140.050781 " fill-opacity="1" fill-rule="nonzero"/><path fill="#ff903e" d="M 158.898438 140.453125 C 158.949219 140.535156 159 140.617188 159.054688 140.699219 C 159 140.617188 158.949219 140.535156 158.898438 140.453125 Z M 158.898438 140.453125 " fill-opacity="1" fill-rule="nonzero"/><path fill="#ff903e" d="M 158.53125 139.640625 C 158.566406 139.746094 158.609375 139.84375 158.648438 139.945312 C 158.609375 139.84375 158.566406 139.742188 158.53125 139.640625 Z M 158.53125 139.640625 " fill-opacity="1" fill-rule="nonzero"/><path fill="#ff903e" d="M 159.4375 141.207031 C 159.476562 141.25 159.519531 141.292969 159.5625 141.335938 C 159.519531 141.292969 159.480469 141.25 159.4375 141.207031 Z M 159.4375 141.207031 " fill-opacity="1" fill-rule="nonzero"/><path fill="#ff903e" d="M 160.472656 142.082031 C 160.546875 142.132812 160.625 142.171875 160.703125 142.214844 C 160.625 142.171875 160.550781 142.132812 160.472656 142.082031 Z M 160.472656 142.082031 " fill-opacity="1" fill-rule="nonzero"/><path fill="#ff903e" d="M 158.324219 138.777344 C 158.328125 138.816406 158.339844 138.855469 158.34375 138.890625 C 158.339844 138.855469 158.328125 138.816406 158.324219 138.777344 Z M 158.324219 138.777344 " fill-opacity="1" fill-rule="nonzero"/><path fill="#ff903e" d="M 159.210938 135.304688 C 159.175781 135.351562 159.144531 135.402344 159.113281 135.449219 C 159.144531 135.402344 159.175781 135.351562 159.210938 135.304688 Z M 159.210938 135.304688 " fill-opacity="1" fill-rule="nonzero"/><path fill="#ff903e" d="M 158.40625 139.214844 C 158.425781 139.285156 158.449219 139.355469 158.46875 139.425781 C 158.445312 139.355469 158.421875 139.285156 158.40625 139.214844 Z M 158.40625 139.214844 " fill-opacity="1" fill-rule="nonzero"/><path fill="#ff903e" d="M 160.109375 141.835938 C 160.164062 141.875 160.21875 141.914062 160.273438 141.953125 C 160.21875 141.910156 160.167969 141.875 160.109375 141.835938 Z M 160.109375 141.835938 " fill-opacity="1" fill-rule="nonzero"/><path fill="#f11e25" d="M 166.367188 141.257812 C 165.453125 142.273438 164.191406 142.789062 162.925781 142.789062 C 162.515625 142.789062 162.109375 142.734375 161.710938 142.625 C 161.40625 142.542969 161.125 142.429688 160.855469 142.296875 C 160.804688 142.273438 160.753906 142.246094 160.707031 142.214844 C 160.628906 142.171875 160.550781 142.132812 160.476562 142.082031 C 160.410156 142.042969 160.34375 141.996094 160.277344 141.953125 C 160.21875 141.914062 160.167969 141.875 160.113281 141.835938 C 160.042969 141.78125 159.976562 141.722656 159.90625 141.660156 C 159.863281 141.621094 159.816406 141.585938 159.769531 141.542969 C 159.699219 141.472656 159.628906 141.40625 159.5625 141.332031 C 159.519531 141.289062 159.480469 141.246094 159.4375 141.203125 C 159.386719 141.144531 159.335938 141.078125 159.289062 141.015625 C 159.242188 140.957031 159.191406 140.898438 159.144531 140.832031 C 159.113281 140.789062 159.085938 140.742188 159.054688 140.699219 C 159 140.617188 158.945312 140.535156 158.898438 140.449219 C 158.878906 140.417969 158.867188 140.386719 158.847656 140.355469 C 158.792969 140.253906 158.742188 140.152344 158.695312 140.050781 C 158.679688 140.015625 158.664062 139.976562 158.648438 139.945312 C 158.605469 139.84375 158.566406 139.746094 158.53125 139.640625 C 158.503906 139.570312 158.488281 139.5 158.46875 139.429688 C 158.449219 139.359375 158.421875 139.289062 158.40625 139.21875 C 158.382812 139.109375 158.363281 139.003906 158.34375 138.890625 C 158.339844 138.855469 158.328125 138.816406 158.324219 138.78125 C 158.308594 138.667969 158.296875 138.550781 158.289062 138.4375 C 158.285156 138.402344 158.28125 138.367188 158.277344 138.332031 C 158.277344 138.230469 158.277344 138.132812 158.277344 138.035156 C 158.277344 137.980469 158.277344 137.925781 158.28125 137.871094 C 158.285156 137.792969 158.296875 137.71875 158.304688 137.640625 C 158.3125 137.558594 158.320312 137.484375 158.328125 137.40625 C 158.339844 137.34375 158.351562 137.289062 158.363281 137.226562 C 158.382812 137.128906 158.402344 137.035156 158.425781 136.9375 C 158.4375 136.882812 158.457031 136.832031 158.472656 136.785156 C 158.503906 136.683594 158.535156 136.585938 158.566406 136.496094 C 158.589844 136.4375 158.613281 136.378906 158.640625 136.320312 C 158.675781 136.238281 158.710938 136.15625 158.746094 136.078125 C 158.78125 136.011719 158.820312 135.941406 158.855469 135.875 C 158.886719 135.8125 158.921875 135.746094 158.960938 135.683594 C 159.007812 135.605469 159.0625 135.53125 159.113281 135.453125 C 159.148438 135.40625 159.179688 135.355469 159.214844 135.308594 C 159.277344 135.226562 159.34375 135.144531 159.414062 135.066406 C 159.453125 135.019531 159.492188 134.972656 159.535156 134.921875 C 159.550781 134.90625 159.5625 134.890625 159.578125 134.875 C 160.71875 133.6875 162.449219 133.144531 164.140625 133.605469 C 166.671875 134.296875 169.496094 135.0625 172.386719 136.074219 C 170.1875 137.53125 168.171875 139.257812 166.367188 141.257812 Z M 166.367188 141.257812 " fill-opacity="1" fill-rule="nonzero"/><g clip-path="url(#d54314876e)"><path fill="#2199ea" d="M 154.964844 150.359375 C 167.929688 150.359375 178.476562 160.957031 178.476562 173.984375 C 178.476562 187.015625 167.925781 197.613281 154.964844 197.613281 C 142.003906 197.613281 131.453125 187.011719 131.453125 173.984375 C 131.453125 160.960938 142 150.359375 154.964844 150.359375 Z M 154.964844 188.269531 C 162.804688 188.269531 169.179688 181.863281 169.179688 173.984375 C 169.179688 166.109375 162.804688 159.699219 154.964844 159.699219 C 147.125 159.699219 140.75 166.109375 140.75 173.984375 C 140.75 181.863281 147.125 188.269531 154.964844 188.269531 Z M 154.964844 188.269531 " fill-opacity="1" fill-rule="nonzero"/></g><g clip-path="url(#ff1a93610a)"><path fill="#ff903e" d="M 220.355469 150.359375 C 233.320312 150.359375 243.867188 160.957031 243.867188 173.980469 C 243.867188 187 233.320312 197.601562 220.355469 197.601562 C 207.394531 197.601562 196.847656 187.003906 196.847656 173.980469 C 196.847656 160.953125 207.398438 150.359375 220.355469 150.359375 Z M 220.355469 188.257812 C 228.191406 188.257812 234.566406 181.851562 234.566406 173.980469 C 234.566406 166.105469 228.191406 159.699219 220.355469 159.699219 C 212.523438 159.699219 206.148438 166.105469 206.148438 173.980469 C 206.152344 181.851562 212.523438 188.257812 220.355469 188.257812 Z M 220.355469 188.257812 " fill-opacity="1" fill-rule="nonzero"/></g><path fill="#0ac8c7" d="M 193.625 142.414062 C 193.617188 142.496094 193.613281 142.582031 193.613281 142.671875 C 193.613281 142.585938 193.617188 142.5 193.625 142.414062 Z M 193.625 142.414062 " fill-opacity="1" fill-rule="nonzero"/><path fill="#0ac8c7" d="M 193.617188 142.792969 C 193.617188 142.890625 193.621094 142.988281 193.632812 143.082031 C 193.621094 142.988281 193.617188 142.890625 193.617188 142.792969 Z M 193.617188 142.792969 " fill-opacity="1" fill-rule="nonzero"/><path fill="#0ac8c7" d="M 194.628906 145.390625 C 194.675781 145.441406 194.722656 145.496094 194.769531 145.546875 C 194.71875 145.496094 194.675781 145.441406 194.628906 145.390625 Z M 194.628906 145.390625 " fill-opacity="1" fill-rule="nonzero"/><path fill="#0ac8c7" d="M 194.886719 145.664062 C 194.945312 145.71875 195 145.769531 195.058594 145.820312 C 195 145.769531 194.945312 145.71875 194.886719 145.664062 Z M 194.886719 145.664062 " fill-opacity="1" fill-rule="nonzero"/><path fill="#0ac8c7" d="M 195.183594 145.917969 C 195.242188 145.96875 195.304688 146.015625 195.367188 146.058594 C 195.304688 146.015625 195.242188 145.96875 195.183594 145.917969 Z M 195.183594 145.917969 " fill-opacity="1" fill-rule="nonzero"/><path fill="#0ac8c7" d="M 194.390625 145.09375 C 194.429688 145.144531 194.46875 145.199219 194.503906 145.25 C 194.46875 145.199219 194.429688 145.148438 194.390625 145.09375 Z M 194.390625 145.09375 " fill-opacity="1" fill-rule="nonzero"/><path fill="#0ac8c7" d="M 193.730469 143.65625 C 193.746094 143.726562 193.761719 143.792969 193.78125 143.859375 C 193.761719 143.792969 193.746094 143.722656 193.730469 143.65625 Z M 193.730469 143.65625 " fill-opacity="1" fill-rule="nonzero"/><path fill="#0ac8c7" d="M 193.648438 143.226562 C 193.660156 143.3125 193.671875 143.394531 193.6875 143.476562 C 193.671875 143.394531 193.660156 143.3125 193.648438 143.226562 Z M 193.648438 143.226562 " fill-opacity="1" fill-rule="nonzero"/><path fill="#0ac8c7" d="M 193.847656 144.058594 C 193.867188 144.117188 193.886719 144.171875 193.90625 144.226562 C 193.886719 144.171875 193.867188 144.117188 193.847656 144.058594 Z M 193.847656 144.058594 " fill-opacity="1" fill-rule="nonzero"/><path fill="#0ac8c7" d="M 194.183594 144.777344 C 194.210938 144.828125 194.242188 144.878906 194.277344 144.925781 C 194.242188 144.878906 194.210938 144.828125 194.183594 144.777344 Z M 194.183594 144.777344 " fill-opacity="1" fill-rule="nonzero"/><path fill="#0ac8c7" d="M 194.003906 144.4375 C 194.027344 144.484375 194.050781 144.535156 194.074219 144.585938 C 194.050781 144.535156 194.023438 144.484375 194.003906 144.4375 Z M 194.003906 144.4375 " fill-opacity="1" fill-rule="nonzero"/><path fill="#0ac8c7" d="M 195.882812 146.355469 C 195.9375 146.382812 195.992188 146.410156 196.050781 146.4375 C 195.992188 146.410156 195.9375 146.382812 195.882812 146.355469 Z M 195.882812 146.355469 " fill-opacity="1" fill-rule="nonzero"/><path fill="#0ac8c7" d="M 196.28125 146.527344 C 196.328125 146.542969 196.375 146.5625 196.421875 146.578125 C 196.371094 146.5625 196.328125 146.542969 196.28125 146.527344 Z M 196.28125 146.527344 " fill-opacity="1" fill-rule="nonzero"/><path fill="#0ac8c7" d="M 197.699219 146.78125 C 197.695312 146.78125 197.6875 146.78125 197.679688 146.78125 C 197.636719 146.78125 197.589844 146.773438 197.546875 146.773438 C 197.589844 146.773438 197.632812 146.78125 197.679688 146.78125 Z M 197.699219 146.78125 " fill-opacity="1" fill-rule="nonzero"/><path fill="#0ac8c7" d="M 193.664062 142.070312 C 193.652344 142.128906 193.644531 142.1875 193.636719 142.246094 C 193.640625 142.1875 193.652344 142.132812 193.664062 142.070312 Z M 193.664062 142.070312 " fill-opacity="1" fill-rule="nonzero"/><path fill="#0ac8c7" d="M 197.160156 146.746094 C 197.191406 146.75 197.21875 146.757812 197.25 146.757812 C 197.21875 146.757812 197.191406 146.75 197.160156 146.746094 Z M 197.160156 146.746094 " fill-opacity="1" fill-rule="nonzero"/><path fill="#0ac8c7" d="M 196.792969 146.683594 C 196.757812 146.675781 196.726562 146.664062 196.691406 146.65625 C 196.730469 146.664062 196.773438 146.675781 196.8125 146.6875 C 196.808594 146.6875 196.800781 146.6875 196.792969 146.683594 Z M 196.792969 146.683594 " fill-opacity="1" fill-rule="nonzero"/><path fill="#0ac8c7" d="M 205.363281 126.726562 C 205.441406 126.113281 205.390625 125.507812 205.242188 124.945312 C 205.445312 125.601562 205.484375 126.316406 205.324219 127.03125 L 202.753906 138.605469 L 197.679688 138.605469 C 195.726562 138.605469 194.097656 139.984375 193.703125 141.828125 C 193.707031 141.820312 193.707031 141.8125 193.707031 141.804688 L 196.234375 130.40625 C 197.519531 130.480469 198.832031 130.605469 200.160156 130.773438 C 202.710938 131.101562 205.039062 129.289062 205.363281 126.726562 Z M 205.363281 126.726562 " fill-opacity="1" fill-rule="nonzero"/><path fill="#0ac8c7" d="M 195.511719 146.148438 C 195.574219 146.1875 195.636719 146.230469 195.699219 146.265625 C 195.636719 146.230469 195.574219 146.1875 195.511719 146.148438 Z M 195.511719 146.148438 " fill-opacity="1" fill-rule="nonzero"/><path fill="#157032" d="M 202.238281 122.152344 C 203.71875 122.480469 204.824219 123.585938 205.242188 124.945312 C 205.390625 125.507812 205.441406 126.113281 205.363281 126.726562 C 205.039062 129.289062 202.714844 131.097656 200.164062 130.777344 C 198.832031 130.605469 197.523438 130.480469 196.238281 130.410156 L 197.386719 125.25 C 197.871094 123.046875 200.046875 121.65625 202.238281 122.152344 Z M 202.238281 122.152344 " fill-opacity="1" fill-rule="nonzero"/><path fill="#43b351" d="M 193.6875 143.476562 C 193.699219 143.535156 193.714844 143.597656 193.730469 143.652344 C 193.714844 143.597656 193.699219 143.535156 193.6875 143.476562 Z M 193.6875 143.476562 " fill-opacity="1" fill-rule="nonzero"/><path fill="#43b351" d="M 193.777344 143.859375 C 193.796875 143.925781 193.824219 143.992188 193.847656 144.058594 C 193.828125 143.992188 193.800781 143.925781 193.777344 143.859375 Z M 193.777344 143.859375 " fill-opacity="1" fill-rule="nonzero"/><path fill="#43b351" d="M 193.632812 142.246094 C 193.628906 142.304688 193.628906 142.359375 193.621094 142.414062 C 193.628906 142.359375 193.632812 142.300781 193.632812 142.246094 Z M 193.632812 142.246094 " fill-opacity="1" fill-rule="nonzero"/><path fill="#43b351" d="M 193.703125 141.828125 C 193.683594 141.910156 193.675781 141.992188 193.664062 142.070312 C 193.675781 141.988281 193.6875 141.90625 193.703125 141.828125 Z M 193.703125 141.828125 " fill-opacity="1" fill-rule="nonzero"/><path fill="#43b351" d="M 193.609375 142.691406 C 193.609375 142.6875 193.609375 142.675781 193.609375 142.671875 C 193.609375 142.710938 193.613281 142.753906 193.613281 142.792969 C 193.617188 142.761719 193.609375 142.726562 193.609375 142.691406 Z M 193.609375 142.691406 " fill-opacity="1" fill-rule="nonzero"/><path fill="#43b351" d="M 193.632812 143.082031 C 193.632812 143.128906 193.644531 143.175781 193.648438 143.226562 C 193.644531 143.179688 193.632812 143.132812 193.632812 143.082031 Z M 193.632812 143.082031 " fill-opacity="1" fill-rule="nonzero"/><path fill="#43b351" d="M 201.648438 143.582031 L 202.753906 138.605469 L 221.445312 138.605469 C 223.691406 138.605469 225.511719 140.4375 225.511719 142.691406 C 225.511719 144.949219 223.691406 146.78125 221.445312 146.78125 L 197.699219 146.78125 C 199.554688 146.773438 201.226562 145.480469 201.648438 143.582031 Z M 201.648438 143.582031 " fill-opacity="1" fill-rule="nonzero"/><path fill="#43b351" d="M 195.367188 146.058594 C 195.414062 146.089844 195.464844 146.121094 195.511719 146.148438 C 195.464844 146.117188 195.414062 146.089844 195.367188 146.058594 Z M 195.367188 146.058594 " fill-opacity="1" fill-rule="nonzero"/><path fill="#43b351" d="M 196.421875 146.578125 C 196.507812 146.609375 196.601562 146.632812 196.695312 146.65625 C 196.601562 146.632812 196.507812 146.609375 196.421875 146.578125 Z M 196.421875 146.578125 " fill-opacity="1" fill-rule="nonzero"/><path fill="#43b351" d="M 195.699219 146.265625 C 195.757812 146.296875 195.816406 146.328125 195.878906 146.355469 C 195.816406 146.328125 195.757812 146.296875 195.699219 146.265625 Z M 195.699219 146.265625 " fill-opacity="1" fill-rule="nonzero"/><path fill="#43b351" d="M 193.90625 144.226562 C 193.9375 144.296875 193.96875 144.367188 194 144.433594 C 193.972656 144.367188 193.9375 144.296875 193.90625 144.226562 Z M 193.90625 144.226562 " fill-opacity="1" fill-rule="nonzero"/><path fill="#43b351" d="M 196.8125 146.6875 C 196.929688 146.710938 197.042969 146.730469 197.160156 146.742188 C 197.042969 146.730469 196.925781 146.710938 196.8125 146.6875 Z M 196.8125 146.6875 " fill-opacity="1" fill-rule="nonzero"/><path fill="#43b351" d="M 197.25 146.757812 C 197.351562 146.769531 197.449219 146.773438 197.550781 146.773438 C 197.449219 146.773438 197.347656 146.769531 197.25 146.757812 Z M 197.25 146.757812 " fill-opacity="1" fill-rule="nonzero"/><path fill="#43b351" d="M 196.050781 146.4375 C 196.125 146.46875 196.203125 146.496094 196.28125 146.527344 C 196.203125 146.5 196.125 146.472656 196.050781 146.4375 Z M 196.050781 146.4375 " fill-opacity="1" fill-rule="nonzero"/><path fill="#43b351" d="M 194.074219 144.585938 C 194.109375 144.652344 194.148438 144.714844 194.183594 144.777344 C 194.148438 144.714844 194.109375 144.652344 194.074219 144.585938 Z M 194.074219 144.585938 " fill-opacity="1" fill-rule="nonzero"/><path fill="#43b351" d="M 194.273438 144.929688 C 194.308594 144.984375 194.351562 145.042969 194.390625 145.097656 C 194.351562 145.039062 194.308594 144.984375 194.273438 144.929688 Z M 194.273438 144.929688 " fill-opacity="1" fill-rule="nonzero"/><path fill="#43b351" d="M 194.769531 145.546875 C 194.804688 145.589844 194.847656 145.625 194.886719 145.664062 C 194.851562 145.625 194.808594 145.589844 194.769531 145.546875 Z M 194.769531 145.546875 " fill-opacity="1" fill-rule="nonzero"/><path fill="#43b351" d="M 195.058594 145.820312 C 195.097656 145.851562 195.144531 145.886719 195.183594 145.917969 C 195.144531 145.886719 195.097656 145.851562 195.058594 145.820312 Z M 195.058594 145.820312 " fill-opacity="1" fill-rule="nonzero"/><path fill="#43b351" d="M 194.507812 145.25 C 194.546875 145.296875 194.585938 145.34375 194.628906 145.390625 C 194.585938 145.34375 194.546875 145.296875 194.507812 145.25 Z M 194.507812 145.25 " fill-opacity="1" fill-rule="nonzero"/><path fill="#148b42" d="M 197.679688 138.605469 L 202.753906 138.605469 L 201.648438 143.582031 C 201.226562 145.480469 199.554688 146.773438 197.699219 146.78125 L 197.679688 146.78125 C 197.632812 146.78125 197.589844 146.773438 197.546875 146.773438 C 197.449219 146.773438 197.347656 146.769531 197.246094 146.757812 C 197.214844 146.757812 197.1875 146.75 197.15625 146.746094 C 197.039062 146.730469 196.925781 146.714844 196.8125 146.691406 C 196.769531 146.679688 196.730469 146.667969 196.6875 146.660156 C 196.597656 146.636719 196.507812 146.609375 196.414062 146.582031 C 196.367188 146.566406 196.320312 146.546875 196.273438 146.53125 C 196.195312 146.503906 196.121094 146.476562 196.042969 146.441406 C 195.988281 146.414062 195.929688 146.386719 195.875 146.359375 C 195.816406 146.328125 195.753906 146.296875 195.695312 146.265625 C 195.632812 146.230469 195.570312 146.191406 195.511719 146.152344 C 195.464844 146.121094 195.414062 146.09375 195.367188 146.0625 C 195.304688 146.015625 195.238281 145.96875 195.179688 145.921875 C 195.140625 145.890625 195.09375 145.855469 195.054688 145.820312 C 194.996094 145.769531 194.941406 145.71875 194.886719 145.667969 C 194.84375 145.628906 194.804688 145.589844 194.765625 145.550781 C 194.714844 145.5 194.667969 145.445312 194.625 145.390625 C 194.582031 145.34375 194.542969 145.300781 194.503906 145.25 C 194.464844 145.199219 194.425781 145.148438 194.390625 145.09375 C 194.351562 145.039062 194.308594 144.984375 194.273438 144.925781 C 194.242188 144.878906 194.210938 144.828125 194.179688 144.777344 C 194.144531 144.714844 194.105469 144.652344 194.070312 144.585938 C 194.046875 144.535156 194.023438 144.484375 194 144.433594 C 193.96875 144.363281 193.9375 144.296875 193.90625 144.226562 C 193.886719 144.171875 193.867188 144.117188 193.847656 144.058594 C 193.824219 143.992188 193.800781 143.925781 193.777344 143.859375 C 193.761719 143.792969 193.746094 143.722656 193.726562 143.65625 C 193.710938 143.597656 193.699219 143.539062 193.683594 143.480469 C 193.667969 143.398438 193.65625 143.3125 193.648438 143.230469 C 193.640625 143.183594 193.632812 143.136719 193.628906 143.085938 C 193.617188 142.988281 193.617188 142.894531 193.613281 142.796875 C 193.613281 142.757812 193.609375 142.714844 193.609375 142.675781 C 193.609375 142.585938 193.617188 142.5 193.621094 142.414062 C 193.625 142.359375 193.628906 142.304688 193.632812 142.246094 C 193.640625 142.1875 193.652344 142.132812 193.660156 142.074219 C 193.671875 141.992188 193.683594 141.910156 193.699219 141.832031 C 194.097656 139.988281 195.726562 138.605469 197.679688 138.605469 Z M 197.679688 138.605469 " fill-opacity="1" fill-rule="nonzero"/><g fill="#545454" fill-opacity="1"><g transform="translate(92.614517, 238.938179)"><g><path d="M 2.640625 0 L 12.269531 0 C 16.441406 0 20.070312 -1.410156 20.070312 -6 C 20.070312 -7.589844 19.019531 -10.109375 16.5 -10.828125 C 18.511719 -11.640625 19.410156 -13.199219 19.410156 -15 C 19.410156 -19.199219 16.261719 -21 12.269531 -21 L 2.640625 -21 Z M 5.96875 -12.300781 L 5.96875 -17.96875 L 12.269531 -17.96875 C 14.789062 -17.96875 16.078125 -16.410156 16.078125 -14.941406 C 16.078125 -13.261719 14.820312 -12.300781 12.300781 -12.300781 Z M 5.96875 -3.121094 L 5.96875 -9.300781 L 12.300781 -9.300781 C 14.21875 -9.300781 16.710938 -8.28125 16.710938 -6.03125 C 16.710938 -3.75 14.101562 -3.121094 12.269531 -3.121094 Z M 5.96875 -3.121094 "/></g></g></g><g fill="#545454" fill-opacity="1"><g transform="translate(114.694492, 238.938179)"><g><path d="M 8.578125 0 L 11.941406 0 L 11.941406 -8.609375 L 20.28125 -20.851562 L 20.28125 -21 L 16.230469 -21 L 10.261719 -11.730469 L 4.46875 -21 L 0.480469 -21 L 0.480469 -20.851562 L 8.578125 -8.609375 Z M 8.578125 0 "/></g></g></g><g fill="#545454" fill-opacity="1"><g transform="translate(135.874469, 238.938179)"><g><path d="M 2.640625 0 L 6 0 L 6 -9.570312 L 15.359375 0 L 19.558594 0 L 19.558594 -0.210938 L 9.089844 -10.859375 L 18.71875 -20.878906 L 18.71875 -21 L 14.550781 -21 L 6 -11.941406 L 6 -21 L 2.640625 -21 Z M 2.640625 0 "/></g></g></g><g fill="#545454" fill-opacity="1"><g transform="translate(155.914451, 238.938179)"><g><path d="M 2.640625 0 L 18.148438 0 L 18.148438 -3.300781 L 6 -3.300781 L 6 -8.941406 L 17.578125 -8.941406 L 17.578125 -12.058594 L 6 -12.058594 L 6 -17.730469 L 18.058594 -17.730469 L 18.058594 -21 L 2.640625 -21 Z M 2.640625 0 "/></g></g></g><g fill="#545454" fill-opacity="1"><g transform="translate(176.344431, 238.938179)"><g><path d="M 1.949219 3.03125 L 16.078125 3.03125 L 16.078125 0.269531 L 1.949219 0.269531 Z M 1.949219 3.03125 "/></g></g></g><g fill="#545454" fill-opacity="1"><g transform="translate(194.974415, 238.938179)"><g><path d="M 12.421875 0.421875 C 15.390625 0.421875 18.148438 -0.539062 20.308594 -2.699219 L 18 -5.011719 C 16.53125 -3.539062 14.371094 -2.730469 12.421875 -2.730469 C 7.019531 -2.730469 4.679688 -6.539062 4.679688 -10.378906 C 4.679688 -14.25 7.050781 -18.179688 12.421875 -18.179688 C 14.371094 -18.179688 16.320312 -17.488281 17.851562 -16.019531 L 20.101562 -18.179688 C 17.941406 -20.339844 15.269531 -21.359375 12.421875 -21.359375 C 4.890625 -21.359375 1.351562 -15.871094 1.351562 -10.351562 C 1.351562 -4.828125 4.828125 0.421875 12.421875 0.421875 Z M 12.421875 0.421875 "/></g></g></g><g fill="#545454" fill-opacity="1"><g transform="translate(216.664401, 238.938179)"><g><path d="M 0.269531 0 L 3.839844 0 L 5.820312 -4.410156 L 17.191406 -4.410156 L 19.199219 0 L 22.769531 0 L 13.351562 -21 L 9.691406 -21 Z M 7.078125 -7.46875 L 11.519531 -17.460938 L 15.960938 -7.46875 Z M 7.078125 -7.46875 "/></g></g></g><g fill="#545454" fill-opacity="1"><g transform="translate(240.30438, 238.938179)"><g><path d="M 9.058594 0.0585938 L 12.570312 0.0585938 L 21.269531 -21 L 17.519531 -21 L 10.800781 -4.019531 L 4.109375 -21 L 0.328125 -21 Z M 9.058594 0.0585938 "/></g></g></g><g fill="#545454" fill-opacity="1"><g transform="translate(262.534355, 238.938179)"><g><path d="M 2.640625 0 L 18.148438 0 L 18.148438 -3.300781 L 6 -3.300781 L 6 -8.941406 L 17.578125 -8.941406 L 17.578125 -12.058594 L 6 -12.058594 L 6 -17.730469 L 18.058594 -17.730469 L 18.058594 -21 L 2.640625 -21 Z M 2.640625 0 "/></g></g></g><g fill="#545454" fill-opacity="1"><g transform="translate(141.045801, 263.238177)"><g><path d="M 4.640625 -2.15625 C 4.640625 -2.582031 4.523438 -2.90625 4.296875 -3.125 C 4.066406 -3.351562 3.648438 -3.578125 3.046875 -3.796875 C 2.453125 -4.015625 1.992188 -4.238281 1.671875 -4.46875 C 1.359375 -4.707031 1.117188 -4.976562 0.953125 -5.28125 C 0.796875 -5.582031 0.71875 -5.929688 0.71875 -6.328125 C 0.71875 -7.003906 0.941406 -7.5625 1.390625 -8 C 1.847656 -8.4375 2.441406 -8.65625 3.171875 -8.65625 C 3.671875 -8.65625 4.113281 -8.539062 4.5 -8.3125 C 4.894531 -8.082031 5.195312 -7.769531 5.40625 -7.375 C 5.613281 -6.976562 5.71875 -6.539062 5.71875 -6.0625 L 4.640625 -6.0625 C 4.640625 -6.59375 4.515625 -7 4.265625 -7.28125 C 4.015625 -7.570312 3.648438 -7.71875 3.171875 -7.71875 C 2.734375 -7.71875 2.394531 -7.597656 2.15625 -7.359375 C 1.925781 -7.117188 1.8125 -6.78125 1.8125 -6.34375 C 1.8125 -5.976562 1.9375 -5.675781 2.1875 -5.4375 C 2.445312 -5.195312 2.847656 -4.976562 3.390625 -4.78125 C 4.222656 -4.507812 4.820312 -4.171875 5.1875 -3.765625 C 5.550781 -3.359375 5.734375 -2.828125 5.734375 -2.171875 C 5.734375 -1.472656 5.507812 -0.914062 5.0625 -0.5 C 4.613281 -0.0820312 4 0.125 3.21875 0.125 C 2.726562 0.125 2.269531 0.015625 1.84375 -0.203125 C 1.425781 -0.421875 1.097656 -0.726562 0.859375 -1.125 C 0.617188 -1.519531 0.5 -1.96875 0.5 -2.46875 L 1.578125 -2.46875 C 1.578125 -1.945312 1.722656 -1.535156 2.015625 -1.234375 C 2.316406 -0.941406 2.71875 -0.796875 3.21875 -0.796875 C 3.695312 -0.796875 4.050781 -0.914062 4.28125 -1.15625 C 4.519531 -1.40625 4.640625 -1.738281 4.640625 -2.15625 Z M 4.640625 -2.15625 "/></g></g></g><g fill="#545454" fill-opacity="1"><g transform="translate(148.210597, 263.238177)"><g><path d="M 6.5 0 L 5.421875 0 L 5.421875 -3.9375 L 2 -3.9375 L 2 0 L 0.921875 0 L 0.921875 -8.53125 L 2 -8.53125 L 2 -4.859375 L 5.421875 -4.859375 L 5.421875 -8.53125 L 6.5 -8.53125 Z M 6.5 0 "/></g></g></g><g fill="#545454" fill-opacity="1"><g transform="translate(156.600003, 263.238177)"><g><path d="M 6.46875 -3.515625 C 6.46875 -2.347656 6.21875 -1.445312 5.71875 -0.8125 C 5.226562 -0.1875 4.523438 0.125 3.609375 0.125 C 2.734375 0.125 2.039062 -0.179688 1.53125 -0.796875 C 1.019531 -1.410156 0.753906 -2.273438 0.734375 -3.390625 L 0.734375 -5 C 0.734375 -6.132812 0.984375 -7.023438 1.484375 -7.671875 C 1.992188 -8.328125 2.695312 -8.65625 3.59375 -8.65625 C 4.5 -8.65625 5.203125 -8.34375 5.703125 -7.71875 C 6.203125 -7.101562 6.457031 -6.21875 6.46875 -5.0625 Z M 5.390625 -5.015625 C 5.390625 -5.910156 5.242188 -6.578125 4.953125 -7.015625 C 4.660156 -7.460938 4.207031 -7.6875 3.59375 -7.6875 C 3.007812 -7.6875 2.566406 -7.460938 2.265625 -7.015625 C 1.960938 -6.566406 1.804688 -5.910156 1.796875 -5.046875 L 1.796875 -3.515625 C 1.796875 -2.640625 1.945312 -1.972656 2.25 -1.515625 C 2.550781 -1.066406 3.003906 -0.84375 3.609375 -0.84375 C 4.210938 -0.84375 4.65625 -1.050781 4.9375 -1.46875 C 5.226562 -1.894531 5.378906 -2.539062 5.390625 -3.40625 Z M 5.390625 -5.015625 "/></g></g></g><g fill="#545454" fill-opacity="1"><g transform="translate(164.755033, 263.238177)"><g><path d="M 2 -3.34375 L 2 0 L 0.921875 0 L 0.921875 -8.53125 L 3.640625 -8.53125 C 4.429688 -8.53125 5.050781 -8.289062 5.5 -7.8125 C 5.957031 -7.34375 6.1875 -6.710938 6.1875 -5.921875 C 6.1875 -5.097656 5.96875 -4.460938 5.53125 -4.015625 C 5.101562 -3.578125 4.5 -3.351562 3.71875 -3.34375 Z M 2 -4.265625 L 3.640625 -4.265625 C 4.117188 -4.265625 4.484375 -4.40625 4.734375 -4.6875 C 4.984375 -4.96875 5.109375 -5.375 5.109375 -5.90625 C 5.109375 -6.425781 4.976562 -6.835938 4.71875 -7.140625 C 4.457031 -7.453125 4.097656 -7.609375 3.640625 -7.609375 L 2 -7.609375 Z M 2 -4.265625 "/></g></g></g><g fill="#545454" fill-opacity="1"><g transform="translate(172.353424, 263.238177)"><g/></g></g><g fill="#545454" fill-opacity="1"><g transform="translate(176.04947, 263.238177)"><g><path d="M 0.609375 -2.296875 C 0.609375 -2.691406 0.703125 -3.0625 0.890625 -3.40625 C 1.085938 -3.75 1.457031 -4.144531 2 -4.59375 C 1.6875 -5.050781 1.46875 -5.421875 1.34375 -5.703125 C 1.226562 -5.992188 1.171875 -6.285156 1.171875 -6.578125 C 1.171875 -7.222656 1.335938 -7.726562 1.671875 -8.09375 C 2.003906 -8.46875 2.453125 -8.65625 3.015625 -8.65625 C 3.523438 -8.65625 3.945312 -8.484375 4.28125 -8.140625 C 4.613281 -7.796875 4.78125 -7.363281 4.78125 -6.84375 C 4.78125 -6.507812 4.710938 -6.195312 4.578125 -5.90625 C 4.453125 -5.625 4.21875 -5.335938 3.875 -5.046875 L 3.28125 -4.53125 L 4.78125 -2.375 C 4.957031 -2.832031 5.046875 -3.351562 5.046875 -3.9375 L 5.984375 -3.9375 C 5.984375 -2.957031 5.78125 -2.144531 5.375 -1.5 L 6.421875 0 L 5.1875 0 L 4.75 -0.625 C 4.519531 -0.394531 4.25 -0.210938 3.9375 -0.078125 C 3.625 0.0546875 3.296875 0.125 2.953125 0.125 C 2.234375 0.125 1.660156 -0.0976562 1.234375 -0.546875 C 0.816406 -0.992188 0.609375 -1.578125 0.609375 -2.296875 Z M 2.953125 -0.765625 C 3.410156 -0.765625 3.832031 -0.976562 4.21875 -1.40625 L 2.515625 -3.875 L 2.34375 -3.734375 C 1.875 -3.285156 1.640625 -2.804688 1.640625 -2.296875 C 1.640625 -1.835938 1.753906 -1.46875 1.984375 -1.1875 C 2.222656 -0.90625 2.546875 -0.765625 2.953125 -0.765625 Z M 2.203125 -6.609375 C 2.203125 -6.398438 2.253906 -6.179688 2.359375 -5.953125 C 2.460938 -5.734375 2.597656 -5.5 2.765625 -5.25 L 3.21875 -5.640625 C 3.457031 -5.828125 3.617188 -6.007812 3.703125 -6.1875 C 3.785156 -6.363281 3.828125 -6.582031 3.828125 -6.84375 C 3.828125 -7.101562 3.75 -7.320312 3.59375 -7.5 C 3.4375 -7.675781 3.238281 -7.765625 3 -7.765625 C 2.75 -7.765625 2.550781 -7.65625 2.40625 -7.4375 C 2.269531 -7.21875 2.203125 -6.941406 2.203125 -6.609375 Z M 2.203125 -6.609375 "/></g></g></g><g fill="#545454" fill-opacity="1"><g transform="translate(183.518954, 263.238177)"><g/></g></g><g fill="#545454" fill-opacity="1"><g transform="translate(187.215, 263.238177)"><g><path d="M 4.640625 -2.15625 C 4.640625 -2.582031 4.523438 -2.90625 4.296875 -3.125 C 4.066406 -3.351562 3.648438 -3.578125 3.046875 -3.796875 C 2.453125 -4.015625 1.992188 -4.238281 1.671875 -4.46875 C 1.359375 -4.707031 1.117188 -4.976562 0.953125 -5.28125 C 0.796875 -5.582031 0.71875 -5.929688 0.71875 -6.328125 C 0.71875 -7.003906 0.941406 -7.5625 1.390625 -8 C 1.847656 -8.4375 2.441406 -8.65625 3.171875 -8.65625 C 3.671875 -8.65625 4.113281 -8.539062 4.5 -8.3125 C 4.894531 -8.082031 5.195312 -7.769531 5.40625 -7.375 C 5.613281 -6.976562 5.71875 -6.539062 5.71875 -6.0625 L 4.640625 -6.0625 C 4.640625 -6.59375 4.515625 -7 4.265625 -7.28125 C 4.015625 -7.570312 3.648438 -7.71875 3.171875 -7.71875 C 2.734375 -7.71875 2.394531 -7.597656 2.15625 -7.359375 C 1.925781 -7.117188 1.8125 -6.78125 1.8125 -6.34375 C 1.8125 -5.976562 1.9375 -5.675781 2.1875 -5.4375 C 2.445312 -5.195312 2.847656 -4.976562 3.390625 -4.78125 C 4.222656 -4.507812 4.820312 -4.171875 5.1875 -3.765625 C 5.550781 -3.359375 5.734375 -2.828125 5.734375 -2.171875 C 5.734375 -1.472656 5.507812 -0.914062 5.0625 -0.5 C 4.613281 -0.0820312 4 0.125 3.21875 0.125 C 2.726562 0.125 2.269531 0.015625 1.84375 -0.203125 C 1.425781 -0.421875 1.097656 -0.726562 0.859375 -1.125 C 0.617188 -1.519531 0.5 -1.96875 0.5 -2.46875 L 1.578125 -2.46875 C 1.578125 -1.945312 1.722656 -1.535156 2.015625 -1.234375 C 2.316406 -0.941406 2.71875 -0.796875 3.21875 -0.796875 C 3.695312 -0.796875 4.050781 -0.914062 4.28125 -1.15625 C 4.519531 -1.40625 4.640625 -1.738281 4.640625 -2.15625 Z M 4.640625 -2.15625 "/></g></g></g><g fill="#545454" fill-opacity="1"><g transform="translate(194.379797, 263.238177)"><g><path d="M 5.015625 -3.9375 L 2 -3.9375 L 2 -0.921875 L 5.515625 -0.921875 L 5.515625 0 L 0.921875 0 L 0.921875 -8.53125 L 5.453125 -8.53125 L 5.453125 -7.609375 L 2 -7.609375 L 2 -4.859375 L 5.015625 -4.859375 Z M 5.015625 -3.9375 "/></g></g></g><g fill="#545454" fill-opacity="1"><g transform="translate(201.286781, 263.238177)"><g><path d="M 3.5 -3.453125 L 2 -3.453125 L 2 0 L 0.921875 0 L 0.921875 -8.53125 L 3.3125 -8.53125 C 4.144531 -8.53125 4.773438 -8.3125 5.203125 -7.875 C 5.640625 -7.4375 5.859375 -6.800781 5.859375 -5.96875 C 5.859375 -5.4375 5.738281 -4.972656 5.5 -4.578125 C 5.269531 -4.191406 4.941406 -3.898438 4.515625 -3.703125 L 6.171875 -0.078125 L 6.171875 0 L 5.015625 0 Z M 2 -4.375 L 3.296875 -4.375 C 3.742188 -4.375 4.101562 -4.515625 4.375 -4.796875 C 4.644531 -5.085938 4.78125 -5.476562 4.78125 -5.96875 C 4.78125 -7.0625 4.28125 -7.609375 3.28125 -7.609375 L 2 -7.609375 Z M 2 -4.375 "/></g></g></g><g fill="#545454" fill-opacity="1"><g transform="translate(208.603921, 263.238177)"><g><path d="M 3.359375 -1.640625 L 5.3125 -8.53125 L 6.484375 -8.53125 L 3.828125 0 L 2.890625 0 L 0.25 -8.53125 L 1.421875 -8.53125 Z M 3.359375 -1.640625 "/></g></g></g><g fill="#545454" fill-opacity="1"><g transform="translate(216.272623, 263.238177)"><g><path d="M 2.046875 0 L 0.96875 0 L 0.96875 -8.53125 L 2.046875 -8.53125 Z M 2.046875 0 "/></g></g></g><g fill="#545454" fill-opacity="1"><g transform="translate(220.220623, 263.238177)"><g><path d="M 6.265625 -2.703125 C 6.222656 -1.796875 5.96875 -1.097656 5.5 -0.609375 C 5.03125 -0.117188 4.367188 0.125 3.515625 0.125 C 2.660156 0.125 1.984375 -0.195312 1.484375 -0.84375 C 0.984375 -1.5 0.734375 -2.382812 0.734375 -3.5 L 0.734375 -5.046875 C 0.734375 -6.160156 0.988281 -7.039062 1.5 -7.6875 C 2.019531 -8.332031 2.726562 -8.65625 3.625 -8.65625 C 4.445312 -8.65625 5.082031 -8.40625 5.53125 -7.90625 C 5.988281 -7.414062 6.234375 -6.710938 6.265625 -5.796875 L 5.1875 -5.796875 C 5.132812 -6.484375 4.984375 -6.972656 4.734375 -7.265625 C 4.492188 -7.566406 4.125 -7.71875 3.625 -7.71875 C 3.039062 -7.71875 2.59375 -7.488281 2.28125 -7.03125 C 1.96875 -6.582031 1.8125 -5.921875 1.8125 -5.046875 L 1.8125 -3.46875 C 1.8125 -2.613281 1.957031 -1.953125 2.25 -1.484375 C 2.539062 -1.023438 2.960938 -0.796875 3.515625 -0.796875 C 4.078125 -0.796875 4.476562 -0.929688 4.71875 -1.203125 C 4.96875 -1.484375 5.125 -1.984375 5.1875 -2.703125 Z M 6.265625 -2.703125 "/></g></g></g><g fill="#545454" fill-opacity="1"><g transform="translate(227.971357, 263.238177)"><g><path d="M 5.015625 -3.9375 L 2 -3.9375 L 2 -0.921875 L 5.515625 -0.921875 L 5.515625 0 L 0.921875 0 L 0.921875 -8.53125 L 5.453125 -8.53125 L 5.453125 -7.609375 L 2 -7.609375 L 2 -4.859375 L 5.015625 -4.859375 Z M 5.015625 -3.9375 "/></g></g></g></svg>